# xmcd
# 
# Track frame offsets:
#     150
#     12600
#     26022
#     42970
#     60462
#     73370
#     87872
#     102385
#     115788
#     132099
#     151222
#     164911
#     178824
# 
# Disc length: 2588
# 
# Revision: 2
# Processed by: cddbd v1.5.2PL0 Copyright (c) Steve Scherf et al.
# Submitted via: fre:ac v1.0.31
# 
DISCID=b50a1a0d
DTITLE=J J Cale - In Session At Paradise Studio Disc 1
DYEAR=2012
DGENRE=Rock/Pop
TTITLE0=Nowhere to Run
TTITLE1=Cocaine
TTITLE2=Sensitive Kind
TTITLE3=Corina Corinaessons
TTITLE4=Roll On
TTITLE5=No Sweat
TTITLE6=Crazy Mama
TTITLE7=Fate of a Fool
TTITLE8=Rollin' Pot
TTITLE9=After Midnight Sweat
TTITLE10=Same Ole Blues
TTITLE11=Don't Cry Sister
TTITLE12=Call Me The Bresze
EXTD=YEAR: 2012
EXTT0=
EXTT1=
EXTT2=
EXTT3=
EXTT4=
EXTT5=
EXTT6=
EXTT7=
EXTT8=
EXTT9=
EXTT10=
EXTT11=
EXTT12=
PLAYORDER=
